<?xml version="1.0" encoding="utf-8"?>
<!DOCTYPE svg PUBLIC "-//W3C//DTD SVG 1.1//EN" "http://www.w3.org/Graphics/SVG/1.1/DTD/svg11.dtd">
<svg version="1.1" xmlns="http://www.w3.org/2000/svg" x="0px" y="0px"
	 width="200px" height="200px" viewBox="0 0 200 200" xml:space="preserve">
<g>
	<!-- Radio tower -->
	<path fill="#FFFFFF" d="M85,80h30v100h10l-5,15H80l-5-15h10V80z"/>
	<circle fill="#FFFFFF" cx="100" cy="60" r="15"/>
	<!-- Broadcast waves left -->
	<path fill="#FFFFFF" d="M55,35c-20,20-20,50,0,70l10-10c-15-15-15-35,0-50L55,35z"/>
	<path fill="#FFFFFF" d="M35,15c-35,35-35,85,0,120l10-10c-30-30-30-70,0-100L35,15z"/>
	<!-- Broadcast waves right -->
	<path fill="#FFFFFF" d="M145,35c20,20,20,50,0,70l-10-10c15-15,15-35,0-50L145,35z"/>
	<path fill="#FFFFFF" d="M165,15c35,35,35,85,0,120l-10-10c30-30,30-70,0-100L165,15z"/>
</g>
</svg>
